HIERARCHY
ROOT mixamorig:Hips
{
	OFFSET 0.00 0.00 0.00
	CHANNELS 6 Xposition Yposition Zposition Zrotation Yrotation Xrotation
	JOINT mixamorig:Spine
	{
		OFFSET	-0.0379	9.4905	-1.3921
		CHANNELS 3 Zrotation Yrotation Xrotation
		JOINT mixamorig:Spine1
		{
			OFFSET	-0.0442	11.0722	-1.6241
			CHANNELS 3 Zrotation Yrotation Xrotation
			JOINT mixamorig:Spine2
			{
				OFFSET	-0.0506	12.6540	-1.8561
				CHANNELS 3 Zrotation Yrotation Xrotation
				JOINT mixamorig:Neck
				{
					OFFSET	-0.0569	14.2358	-2.0881
					CHANNELS 3 Zrotation Yrotation Xrotation
					JOINT mixamorig:Head
					{
						OFFSET	0.0000	3.2802	0.3133
						CHANNELS 3 Zrotation Yrotation Xrotation
						End Site
						{
							OFFSET 0.0000 25.6535 2.4505
						}
					}
				}
				JOINT mixamorig:LeftShoulder
				{
					OFFSET	6.7288	11.7566	-2.0585
					CHANNELS 3 Zrotation Yrotation Xrotation
					JOINT mixamorig:LeftArm
					{
						OFFSET	13.5713	-4.9583	0.0593
						CHANNELS 3 Zrotation Yrotation Xrotation
						JOINT mixamorig:LeftForeArm
						{
							OFFSET	17.2582	-15.4446	-0.1304
							CHANNELS 3 Zrotation Yrotation Xrotation
							JOINT mixamorig:LeftHand
							{
								OFFSET	19.1747	-11.8144	8.4973
								CHANNELS 3 Zrotation Yrotation Xrotation
								JOINT mixamorig:LeftHandThumb1
								{
									OFFSET	1.4152	-3.1459	3.3921
									CHANNELS 3 Zrotation Yrotation Xrotation
									JOINT mixamorig:LeftHandThumb2
									{
										OFFSET	1.1321	-2.5167	2.7137
										CHANNELS 3 Zrotation Yrotation Xrotation
										JOINT mixamorig:LeftHandThumb3
										{
											OFFSET	0.8208	-4.0642	2.2357
											CHANNELS 3 Zrotation Yrotation Xrotation
											End Site
											{
												OFFSET 1.6034 -3.3436 0.9597
											}
										}
									}
								}
								JOINT mixamorig:LeftHandIndex1
								{
									OFFSET	9.2608	-6.0923	10.0311
									CHANNELS 3 Zrotation Yrotation Xrotation
									JOINT mixamorig:LeftHandIndex2
									{
										OFFSET	2.1918	-1.7186	1.6722
										CHANNELS 3 Zrotation Yrotation Xrotation
										JOINT mixamorig:LeftHandIndex3
										{
											OFFSET	1.7360	-1.7660	0.9701
											CHANNELS 3 Zrotation Yrotation Xrotation
											End Site
											{
												OFFSET 2.0655 -2.6048 1.4660
											}
										}
									}
								}
								JOINT mixamorig:LeftHandMiddle1
								{
									OFFSET	10.5922	-6.2980	7.4687
									CHANNELS 3 Zrotation Yrotation Xrotation
									JOINT mixamorig:LeftHandMiddle2
									{
										OFFSET	2.5325	-1.7582	1.0567
										CHANNELS 3 Zrotation Yrotation Xrotation
										JOINT mixamorig:LeftHandMiddle3
										{
											OFFSET	1.4253	-2.1413	0.5937
											CHANNELS 3 Zrotation Yrotation Xrotation
											End Site
											{
												OFFSET 1.4359 -3.3336 0.5679
											}
										}
									}
								}
								JOINT mixamorig:LeftHandRing1
								{
									OFFSET	11.3894	-6.2561	4.0229
									CHANNELS 3 Zrotation Yrotation Xrotation
									JOINT mixamorig:LeftHandRing2
									{
										OFFSET	2.1076	-1.6023	0.6135
										CHANNELS 3 Zrotation Yrotation Xrotation
										JOINT mixamorig:LeftHandRing3
										{
											OFFSET	0.7822	-1.9700	0.2509
											CHANNELS 3 Zrotation Yrotation Xrotation
											End Site
											{
												OFFSET 0.4716 -2.6865 0.5721
											}
										}
									}
								}
								JOINT mixamorig:LeftHandPinky1
								{
									OFFSET	10.9033	-6.8431	1.2170
									CHANNELS 3 Zrotation Yrotation Xrotation
									JOINT mixamorig:LeftHandPinky2
									{
										OFFSET	1.0521	-1.1494	-0.0577
										CHANNELS 3 Zrotation Yrotation Xrotation
										JOINT mixamorig:LeftHandPinky3
										{
											OFFSET	0.2801	-1.5065	0.1598
											CHANNELS 3 Zrotation Yrotation Xrotation
											End Site
											{
												OFFSET 0.6358 -1.4513 0.5238
											}
										}
									}
								}
							}
						}
					}
				}
				JOINT mixamorig:RightShoulder
				{
					OFFSET	-6.8238	11.7566	-2.1177
					CHANNELS 3 Zrotation Yrotation Xrotation
					JOINT mixamorig:RightArm
					{
						OFFSET	-13.5338	-4.9583	-0.0593
						CHANNELS 3 Zrotation Yrotation Xrotation
						JOINT mixamorig:RightForeArm
						{
							OFFSET	-17.2582	-15.4446	-0.1126
							CHANNELS 3 Zrotation Yrotation Xrotation
							JOINT mixamorig:RightHand
							{
								OFFSET	-19.1747	-11.8143	8.6982
								CHANNELS 3 Zrotation Yrotation Xrotation
								JOINT mixamorig:RightHandThumb1
								{
									OFFSET	-1.4504	-3.2286	3.3657
									CHANNELS 3 Zrotation Yrotation Xrotation
									JOINT mixamorig:RightHandThumb2
									{
										OFFSET	-1.1603	-2.5829	2.6926
										CHANNELS 3 Zrotation Yrotation Xrotation
										JOINT mixamorig:RightHandThumb3
										{
											OFFSET	-0.8066	-4.0900	2.2727
											CHANNELS 3 Zrotation Yrotation Xrotation
											End Site
											{
												OFFSET -1.3619 -3.3561 1.1081
											}
										}
									}
								}
								JOINT mixamorig:RightHandIndex1
								{
									OFFSET	-9.3119	-5.9977	10.0611
									CHANNELS 3 Zrotation Yrotation Xrotation
									JOINT mixamorig:RightHandIndex2
									{
										OFFSET	-2.1048	-1.8288	1.6029
										CHANNELS 3 Zrotation Yrotation Xrotation
										JOINT mixamorig:RightHandIndex3
										{
											OFFSET	-1.7590	-1.7055	0.9784
											CHANNELS 3 Zrotation Yrotation Xrotation
											End Site
											{
												OFFSET -2.1656 -2.6293 1.3206
											}
										}
									}
								}
								JOINT mixamorig:RightHandMiddle1
								{
									OFFSET	-10.8050	-6.3490	7.3536
									CHANNELS 3 Zrotation Yrotation Xrotation
									JOINT mixamorig:RightHandMiddle2
									{
										OFFSET	-2.3752	-1.6487	1.1901
										CHANNELS 3 Zrotation Yrotation Xrotation
										JOINT mixamorig:RightHandMiddle3
										{
											OFFSET	-1.3712	-2.2392	0.4981
											CHANNELS 3 Zrotation Yrotation Xrotation
											End Site
											{
												OFFSET -1.5574 -2.6423 0.6323
											}
										}
									}
								}
								JOINT mixamorig:RightHandRing1
								{
									OFFSET	-10.9108	-6.1334	3.9079
									CHANNELS 3 Zrotation Yrotation Xrotation
									JOINT mixamorig:RightHandRing2
									{
										OFFSET	-2.1215	-1.2548	0.4888
										CHANNELS 3 Zrotation Yrotation Xrotation
										JOINT mixamorig:RightHandRing3
										{
											OFFSET	-1.1529	-1.8295	0.3881
											CHANNELS 3 Zrotation Yrotation Xrotation
											End Site
											{
												OFFSET -1.1314 -2.8340 0.3221
											}
										}
									}
								}
								JOINT mixamorig:RightHandPinky1
								{
									OFFSET	-11.0147	-6.9107	1.0680
									CHANNELS 3 Zrotation Yrotation Xrotation
									JOINT mixamorig:RightHandPinky2
									{
										OFFSET	-0.9868	-1.3546	0.1104
										CHANNELS 3 Zrotation Yrotation Xrotation
										JOINT mixamorig:RightHandPinky3
										{
											OFFSET	-0.2187	-1.3359	0.1675
											CHANNELS 3 Zrotation Yrotation Xrotation
											End Site
											{
												OFFSET -0.5717 -1.4745 0.5311
											}
										}
									}
								}
							}
						}
					}
				}
			}
		}
	}
	JOINT mixamorig:LeftUpLeg
	{
		OFFSET	9.6182	-5.2725	-1.0109
		CHANNELS 3 Zrotation Yrotation Xrotation
		JOINT mixamorig:LeftLeg
		{
			OFFSET	1.3853	-43.3265	-1.1856
			CHANNELS 3 Zrotation Yrotation Xrotation
			JOINT mixamorig:LeftFoot
			{
				OFFSET	1.1958	-44.1070	-5.7230
				CHANNELS 3 Zrotation Yrotation Xrotation
				JOINT mixamorig:LeftToeBase
				{
					OFFSET	2.5995	-11.8143	15.8139
					CHANNELS 3 Zrotation Yrotation Xrotation
					End Site
					{
						OFFSET 1.2230 0.0445 7.9736
					}
				}
			}
		}
	}
	JOINT mixamorig:RightUpLeg
	{
		OFFSET	-9.9411	-5.2725	-1.2117
		CHANNELS 3 Zrotation Yrotation Xrotation
		JOINT mixamorig:RightLeg
		{
			OFFSET	-1.3852	-43.3265	-0.5841
			CHANNELS 3 Zrotation Yrotation Xrotation
			JOINT mixamorig:RightFoot
			{
				OFFSET	-1.1958	-44.1069	-6.3865
				CHANNELS 3 Zrotation Yrotation Xrotation
				JOINT mixamorig:RightToeBase
				{
					OFFSET	-2.5995	-11.8146	15.9998
					CHANNELS 3 Zrotation Yrotation Xrotation
					End Site
					{
						OFFSET -1.2231 0.0444 7.9271
					}
				}
			}
		}
	}
}
MOTION
Frames: 7
Frame Time: 0.0333333
0.1951 94.4373 1.7236 1.7290 -3.5870 -0.4620 -0.5444 0.7245 2.0851 -0.3922 1.3687 3.1300 -0.3793 1.3752 3.1292 -1.8934 -2.3070 -4.1282 7.1007 -12.9912 -16.3454 10.6551 -7.3678 -0.0998 -39.5898 -5.0088 27.9164 38.9970 -57.2399 -77.0809 13.4297 16.2367 9.6497 -10.5839 -3.0845 0.9482 12.4336 12.6921 -3.3107 -7.0504 -1.5120 -3.5816 -30.1339 -7.4349 11.7766 -37.0766 -4.2050 17.2846 -21.8526 3.4694 14.2438 -40.0835 -10.5676 14.1335 -22.0402 0.4380 8.0564 -19.7659 0.4809 6.7676 -40.6718 -12.4772 12.5808 -9.1317 1.4320 4.1119 -23.1435 4.0116 16.0438 -29.3018 -19.1322 1.8308 -9.6358 5.6457 12.7570 -41.3853 4.5703 20.3233 -3.4387 1.6909 0.5646 38.7013 15.3538 33.2117 -50.1813 57.6619 -90.2867 -13.6164 -12.3925 -3.1975 9.2605 -5.0588 -3.3118 -11.2943 -7.2346 -7.6947 5.6025 4.9549 -8.2217 36.5710 0.0148 20.3697 27.6493 6.1421 11.3852 27.8184 -1.8009 14.2236 35.7185 7.8524 14.2222 15.8339 4.5146 2.4700 35.9741 -4.4442 13.2180 48.1465 12.8277 15.7370 -0.5841 -2.7311 2.5421 19.2364 0.3148 4.1627 31.6719 13.8442 5.5509 17.1558 -6.6660 14.2610 41.3485 -4.2137 21.6975 -6.3507 3.3464 -25.8393 5.9479 0.7809 55.1325 4.3159 0.2283 -27.3233 -0.0000 -0.0000 -5.5373 2.6651 -7.1032 -24.2748 -12.2706 -3.0417 55.5130 2.6988 -2.3258 -26.8265 -0.0000 -0.0000 -8.0292 
0.1927 95.6085 1.7010 1.3448 -3.3570 0.0431 -0.4609 0.6842 1.8689 -0.2367 1.2972 2.7495 -0.2250 1.3027 2.7486 -1.6755 -2.2889 -3.9762 6.7385 -12.6918 -16.7180 12.1455 -8.3432 -0.3893 -41.5217 -4.5988 28.5394 40.4430 -57.3778 -78.7988 14.6401 16.2824 8.4009 -10.2057 -3.0605 0.7379 12.4348 12.6958 -3.3059 -6.9956 -1.3284 -3.3761 -30.3165 -7.5294 11.7808 -36.8487 -4.2601 17.1521 -21.7651 3.4580 14.2002 -40.6895 -10.8521 14.1263 -22.1763 0.4543 8.1080 -19.6704 0.4704 6.7322 -41.2257 -12.5092 12.7264 -9.1975 1.4369 4.1320 -22.9731 3.9887 15.9911 -30.0641 -19.0636 2.1899 -10.2913 5.7569 12.8737 -41.1915 4.5425 20.2751 -3.4184 2.6832 0.6333 37.9844 16.2511 34.3618 -52.3322 57.5884 -92.8330 -12.2528 -11.4278 -5.5854 8.9173 -5.1326 -3.4136 -11.2943 -7.2346 -7.6947 5.6312 5.0117 -8.2905 36.4188 0.1875 20.1400 27.4590 6.1647 11.2738 27.6623 -1.7767 14.1505 35.2926 8.1135 13.8584 15.4411 4.5295 2.2991 35.9866 -4.4450 13.2227 47.9193 12.9272 15.6094 -0.7024 -2.7291 2.5131 19.1526 0.3215 4.1391 31.6069 13.8848 5.4725 17.2218 -6.6778 14.2755 41.2960 -4.2047 21.6816 -6.2807 3.0880 -25.7823 6.3417 0.4990 53.3198 4.1869 0.1140 -24.6413 -0.0000 0.0000 -7.3580 2.9278 -7.4852 -24.1430 -12.1539 -3.5847 53.5734 2.5072 -1.9053 -23.8830 -0.0000 0.0000 -10.0335 
0.2841 99.0585 2.0782 0.6170 -3.5160 0.4580 -0.1410 0.7210 1.4716 0.0977 1.4021 2.1950 0.1083 1.4091 2.1933 -1.4297 -2.2866 -4.1275 6.5492 -12.5781 -15.6548 12.8006 -8.6327 -0.5083 -41.6180 -5.0741 30.1075 45.3103 -57.6652 -84.5662 15.5116 16.0616 8.4824 -9.8912 -3.0501 0.5410 12.3658 12.4879 -3.5670 -6.9564 -1.1994 -3.2311 -30.4404 -7.7510 11.6588 -36.5248 -4.3376 16.9636 -21.5917 3.4357 14.1137 -40.9785 -11.2200 13.9532 -22.1524 0.4515 8.0990 -19.5556 0.4578 6.6897 -41.2659 -12.6344 12.6395 -9.1844 1.4359 4.1280 -22.8404 3.9709 15.9501 -30.0314 -19.0718 2.1686 -10.6878 5.8248 12.9436 -41.0855 4.5274 20.2487 -1.6015 3.8280 0.7944 34.3514 17.3243 35.0893 -58.7575 57.0548 -100.4622 -11.5889 -10.8550 -6.9265 8.4619 -5.2931 -3.4037 -11.2943 -7.2346 -7.6947 5.6546 5.0581 -8.3467 36.3085 0.4400 19.8436 27.2410 6.1900 11.1460 27.5412 -1.7580 14.0939 35.1271 8.4391 13.5467 14.9523 4.5463 2.0863 36.0060 -4.4459 13.2304 47.5651 13.0178 15.4503 -1.0319 -2.7240 2.4323 19.1079 0.3244 4.1262 31.5299 13.9726 5.3228 17.1070 -6.6573 14.2503 41.2416 -4.1955 21.6650 -6.0089 3.6992 -24.2060 6.1161 -0.6595 47.7565 3.3156 -0.1832 -15.6932 -0.0000 0.0000 -13.4036 2.9464 -8.5463 -21.9612 -11.8574 -4.5247 46.8784 4.3578 0.9883 -14.3330 -0.0000 0.0000 -13.1038 
0.4617 103.6512 2.5846 -0.0822 -3.9429 1.0010 0.2545 0.8051 0.9785 0.4536 1.6045 1.5231 0.4625 1.6141 1.5197 -1.2525 -2.3090 -4.7417 6.5543 -12.7036 -13.6114 12.2742 -8.1513 -0.3824 -39.3964 -6.3365 31.7839 52.5065 -57.6067 -93.0800 15.9970 15.8897 9.8974 -9.8222 -3.0533 0.4861 12.3110 12.3194 -3.7771 -6.9211 -1.0851 -3.1021 -30.4735 -7.9827 11.4902 -36.3364 -4.3821 16.8539 -21.4488 3.4175 14.0425 -40.9536 -11.5428 13.7115 -22.0897 0.4439 8.0752 -19.4601 0.4474 6.6543 -40.9592 -12.7622 12.4440 -9.1585 1.4340 4.1201 -22.7764 3.9623 15.9303 -29.2997 -19.1066 1.8593 -10.6100 5.8114 12.9299 -41.0949 4.5288 20.2511 -0.1077 4.1044 0.8903 30.3958 19.6493 35.0673 -65.9341 55.8519 -109.0663 -11.7931 -10.2336 -5.9274 7.9977 -5.5315 -3.2178 -11.2942 -7.2346 -7.6947 5.7062 5.1610 -8.4711 36.4818 0.6920 19.6470 27.0148 6.2159 11.0134 27.4269 -1.7406 14.0403 35.6232 8.7243 13.5235 14.5784 4.5580 1.9234 36.0376 -4.4484 13.2422 47.5085 13.0626 15.4056 -1.3474 -2.7195 2.3549 19.1631 0.3213 4.1422 31.5406 14.1092 5.1314 17.1211 -6.6598 14.2534 41.2069 -4.1895 21.6544 -5.4298 5.2969 -21.9998 4.9168 -2.3469 39.3605 1.0050 -0.3788 -0.9633 -0.8308 -0.2209 -17.3524 3.0200 -10.4579 -18.3151 -8.7660 -3.7806 36.2230 4.4342 1.5000 -1.5827 -0.0940 -0.0214 -18.2045 
0.6980 107.9963 2.9404 -0.6646 -4.5768 1.8399 0.6880 0.9102 0.4755 0.7771 1.8389 0.8735 0.7823 1.8508 0.8676 -1.2416 -2.3329 -5.8181 6.6968 -12.9178 -11.7526 10.8472 -7.0785 -0.0927 -35.2450 -8.5731 32.6803 60.6640 -56.8287 -102.7742 16.4962 15.9738 11.9349 -10.0984 -3.0758 0.6320 12.3386 12.4065 -3.6677 -6.8606 -0.8922 -2.8837 -30.2506 -8.1497 11.2623 -36.2728 -4.3971 16.8169 -21.2892 3.3974 13.9627 -40.5532 -11.8411 13.3643 -21.9406 0.4260 8.0186 -19.3506 0.4356 6.6137 -40.3346 -12.8949 12.1437 -9.0796 1.4281 4.0961 -22.7251 3.9555 15.9144 -28.0383 -19.1379 1.3436 -10.0387 5.7139 12.8288 -41.1343 4.5344 20.2609 -0.2139 3.2582 0.8134 27.6144 24.1545 33.6642 -71.8692 54.2821 -116.3008 -12.0875 -9.8515 -4.6043 7.6181 -5.8111 -2.8608 -11.2942 -7.2346 -7.6947 5.8200 5.3910 -8.7483 36.9766 0.9102 19.5953 26.8524 6.2340 10.9182 27.4036 -1.7370 14.0294 36.8209 8.8621 13.8742 14.4095 4.5629 1.8498 36.0635 -4.4499 13.2522 47.9905 12.9990 15.5844 -1.4039 -2.7187 2.3411 19.1444 0.3244 4.1376 31.6758 14.2401 4.9878 17.7297 -6.7693 14.3866 41.2372 -4.1947 21.6636 -4.6242 7.3932 -20.1003 3.7795 -3.2568 30.5650 -2.1224 0.0906 14.3309 2.2384 0.6152 -26.8860 2.4305 -12.2941 -15.6905 -5.8847 -1.9152 26.6377 9.3497 0.0227 11.4889 -4.8503 -1.0507 -22.5340 
0.9743 111.3217 3.0475 -1.0978 -5.3627 2.7766 1.1026 1.0059 0.0928 1.0415 2.0305 0.4719 1.0416 2.0449 0.4628 -1.3280 -2.3213 -7.2856 6.7482 -12.9181 -10.6408 9.5362 -5.3198 0.2038 -30.2768 -12.8011 31.9177 67.9111 -55.4216 -111.4956 17.6770 16.1696 14.8017 -10.5776 -3.1106 0.8903 12.4540 12.7593 -3.2241 -6.7559 -0.5677 -2.5138 -29.8214 -8.2782 10.9740 -36.0560 -4.4477 16.6904 -20.9817 3.3593 13.8091 -39.9015 -12.1086 12.9529 -21.5703 0.3824 7.8778 -19.1767 0.4170 6.5491 -39.4839 -13.0467 11.7508 -8.8452 1.4107 4.0245 -22.6184 3.9413 15.8814 -26.5953 -19.1635 0.7417 -9.1927 5.5713 12.6774 -41.1209 4.5324 20.2575 -1.5134 1.6377 0.6326 24.9759 31.0220 29.3847 -76.0878 52.7740 -121.5442 -12.8086 -10.9752 -4.9549 7.4000 -6.0577 -2.4433 -11.2942 -7.2346 -7.6947 5.9428 5.6442 -9.0519 37.5123 1.0695 19.6145 26.7328 6.2473 10.8480 27.5035 -1.7523 14.0762 38.0302 8.8465 14.3299 14.2756 4.5666 1.7915 36.0439 -4.4433 13.2478 48.7590 12.8399 15.9011 -1.1576 -2.7221 2.4015 18.7295 0.3546 4.0198 31.8578 14.2903 4.9733 19.1387 -7.0283 14.6905 41.3501 -4.2140 21.6980 -3.6261 9.1371 -19.6793 4.1154 -1.3400 25.2626 -7.3188 1.7126 23.4401 6.6840 1.3958 -23.5105 1.8186 -13.3552 -14.0231 -5.1536 -2.1134 18.9736 14.6412 -2.4722 21.6588 -8.6286 -1.1497 -20.9464 
1.2710 113.5322 2.9227 -1.2149 -6.1098 3.2376 1.3273 1.0327 0.0177 1.1825 2.0825 0.5477 1.1789 2.1001 0.5358 -1.2743 -2.2664 -8.9126 6.3675 -12.5464 -9.8292 9.3719 -2.7124 0.4271 -25.2992 -19.7813 28.4315 72.4911 -54.1125 -117.0999 19.0723 16.3848 18.1517 -10.9043 -3.1318 1.0684 12.6126 13.2242 -2.6341 -6.6272 -0.1836 -2.0714 -29.3707 -8.4759 10.6206 -35.3694 -4.6047 16.2890 -20.5087 3.3023 13.5725 -39.2088 -12.3022 12.5761 -20.9758 0.3142 7.6514 -18.9652 0.3946 6.4706 -38.6362 -13.1936 11.3548 -8.4294 1.3805 3.8974 -22.4501 3.9191 15.8293 -25.4395 -19.1817 0.2443 -8.3714 5.4351 12.5285 -41.0587 4.5236 20.2421 -2.9148 -0.1642 0.4746 19.7536 39.2276 20.4215 -78.2555 51.8458 -124.2827 -14.1524 -14.0361 -6.3393 7.3608 -6.1914 -2.1491 -11.2942 -7.2346 -7.6947 5.9586 5.6775 -9.0916 37.7612 1.0968 19.6693 26.5532 6.2669 10.7426 27.5676 -1.7621 14.1062 38.4251 8.7672 14.5311 13.9056 4.5763 1.6302 35.9598 -4.4250 13.2230 49.4103 12.6633 16.1913 -0.8954 -2.7261 2.4658 17.8763 0.4113 3.7757 31.9810 14.2290 5.0985 20.9734 -7.3767 15.0768 41.5171 -4.2426 21.7488 -3.1652 10.1796 -19.3387 5.3748 2.9243 22.5437 -10.0826 2.6259 25.6177 6.5144 0.4167 -13.3433 1.6398 -13.6266 -13.4570 -5.7987 -3.9203 15.6793 15.4564 -3.1412 24.3684 -5.6659 -0.1650 -10.2000 
